<svg xmlns="http://www.w3.org/2000/svg" viewBox="0 0 160 50" fill="none">
  <!-- Background Shape for the E and C blocks -->
  <g transform="translate(10, 5)">
    <!-- The badge shape -->
    <path d="M0,0 H40 V40 A10,10 0 0,1 0,40 Z" fill="#165032" />
    <path d="M0,0 H20 V20 H0 Z" fill="#165032" opacity="0.1"/>
    
    <!-- Tree Element (representing the academic/growing aspect) -->
    <path d="M22,12 C20,10 24,10 24,6 C24,10 28,10 26,12 L25,12 L25,18 L23,18 Z" fill="#dfd5c5" />
    <circle cx="21" cy="9" r="2.5" fill="#dfd5c5" />
    <circle cx="27" cy="9" r="2.5" fill="#dfd5c5" />
    <circle cx="24" cy="7" r="3" fill="#dfd5c5" />
    
    <!-- E Letter -->
    <path d="M8,12 H16 V14 H10 V19 H15 V21 H10 V26 H16 V28 H8 Z" fill="#dfd5c5" />
    <!-- C Letter -->
    <path d="M28,20 C24,20 22,22 22,25 C22,28 24,30 28,30 C30,30 32,29 33,28 L31,26 C30,27 29,28 28,28 C26,28 25,27 25,25 C25,23 26,22 28,22 C29,22 30,23 31,24 L33,22 C32,21 30,20 28,20 Z" fill="#dfd5c5" />
  </g>
  <!-- Text -->
  <text x="58" y="22" font-family="'IBM Plex Sans Arabic', sans-serif" font-weight="700" font-size="16" fill="#165032">حضانة EC</text>
  <text x="58" y="38" font-family="'IBM Plex Sans Arabic', sans-serif" font-weight="500" font-size="12" fill="#d4a373">ثنائية اللغة</text>
</svg>